<?xml version="1.0" encoding="UTF-8" standalone="no"?>
<!-- Created with Inkscape (http://www.inkscape.org/) -->

<svg
   width="48px"
   height="48px"
   viewBox="0 0 48 48"
   version="1.1"
   id="svg107"
   inkscape:version="1.1.2 (b8e25be833, 2022-02-05)"
   sodipodi:docname="melt.svg"
   xmlns:inkscape="http://www.inkscape.org/namespaces/inkscape"
   xmlns:sodipodi="http://sodipodi.sourceforge.net/DTD/sodipodi-0.dtd"
   xmlns="http://www.w3.org/2000/svg"
   xmlns:svg="http://www.w3.org/2000/svg">
  <sodipodi:namedview
     id="namedview109"
     pagecolor="#ffffff"
     bordercolor="#666666"
     borderopacity="1.0"
     inkscape:pageshadow="2"
     inkscape:pageopacity="0.0"
     inkscape:pagecheckerboard="0"
     inkscape:document-units="mm"
     showgrid="false"
     inkscape:zoom="2.8792368"
     inkscape:cx="105.58353"
     inkscape:cy="-20.317884"
     inkscape:window-width="1920"
     inkscape:window-height="1001"
     inkscape:window-x="-9"
     inkscape:window-y="-9"
     inkscape:window-maximized="1"
     inkscape:current-layer="layer1"
     showguides="true"
     inkscape:guide-bbox="true" />
  <defs
     id="defs104" />
  <g
     inkscape:label="Calque 1"
     inkscape:groupmode="layer"
     id="layer1"
     transform="translate(-70.834161,-93.256238)">
    <path
       style="fill:#000000;stroke-width:0.0912731"
       d="m 101.5055,141.12231 c -0.62642,-0.15648 -1.22927,-0.47694 -1.623857,-0.86291 -0.649226,-0.635 -0.636137,-0.51658 -0.636137,-5.75558 0,-5.22947 0.01314,-5.11189 -0.623385,-5.49729 -0.474264,-0.28686 -0.992786,-0.33713 -1.573977,-0.15231 -0.871146,0.27704 -0.862566,0.24869 -0.923874,3.10352 l -0.05412,2.51959 -0.283318,0.43502 c -0.383888,0.58953 -0.959032,1.0269 -1.689785,1.28504 -0.530723,0.18747 -0.733933,0.21506 -1.57775,0.21354 -0.807994,-0.001 -1.057773,-0.034 -1.506658,-0.19162 -0.685298,-0.24227 -1.337376,-0.71055 -1.673733,-1.20223 l -0.263404,-0.38502 -0.0538,-4.26112 c -0.04939,-3.89722 -0.06999,-4.27888 -0.243122,-4.46887 -0.301657,-0.33071 -0.772773,-0.46492 -1.501178,-0.42701 -0.537559,0.0264 -0.685875,0.0703 -0.978215,0.28082 l -0.344585,0.24755 -0.05733,4.31426 c -0.06321,4.75847 -0.03415,4.55724 -0.774449,5.38693 -0.665525,0.746 -2.260809,1.36577 -3.515518,1.36577 -0.674462,0 -1.646131,-0.18898 -2.224059,-0.43265 -0.698554,-0.29442 -1.500558,-0.96593 -1.771859,-1.48354 -0.152273,-0.29064 -0.259831,-0.72877 -0.309853,-1.26323 -0.08475,-0.90501 -0.270866,-1.2277 -0.910255,-1.57848 -0.508418,-0.27893 -1.089368,-0.34658 -3.431647,-0.39836 l -2.125471,-0.0469 v -19.3055 -19.305492 h 23.999982 24.000017 l -0.0263,20.146132 -0.0263,20.14614 -0.34354,0.52176 c -0.42361,0.64324 -1.16765,1.19267 -2.02533,1.49556 -0.59463,0.20977 -0.73584,0.22753 -1.83043,0.22753 -1.12,0 -1.22555,-0.0151 -1.89463,-0.25096 -0.85335,-0.30199 -1.60908,-0.85584 -2.01182,-1.4739 -0.28752,-0.44126 -0.28863,-0.45 -0.34417,-2.72629 -0.0468,-1.91082 -0.0844,-2.32154 -0.23114,-2.516 -0.36655,-0.48578 -1.01009,-0.73591 -1.88706,-0.73353 -0.77698,0.002 -1.4199,0.20296 -1.7648,0.55049 l -0.25842,0.26079 -0.0538,5.2639 -0.0538,5.26394 -0.30192,0.44232 c -0.75303,1.10316 -2.64317,1.65551 -4.27186,1.24834 z m 1.65749,-1.45029 c 0.74858,-0.22526 0.71012,0.065 0.71012,-5.35253 0,-3.1855 0.0405,-5.04242 0.11696,-5.33926 0.16436,-0.63946 0.49261,-1.10026 1.09184,-1.53271 2.04477,-1.47564 5.72881,-1.01881 6.95245,0.86207 0.28431,0.43703 0.28605,0.45139 0.34011,2.72296 0.0457,1.92945 0.082,2.31961 0.23246,2.51584 0.54752,0.71388 1.79632,1.00823 2.83614,0.66845 0.49686,-0.16214 1.08847,-0.61353 1.20824,-0.92145 0.0452,-0.11641 0.0824,-3.70065 0.0824,-7.9652 v -7.75378 l -0.32693,-0.33487 c -0.43943,-0.44976 -1.32321,-0.77684 -2.13677,-0.79083 -0.51956,-0.008 -0.63676,0.0189 -0.89647,0.2041 l -0.29877,0.21468 -0.0584,1.68204 c -0.0536,1.54409 -0.0791,1.7156 -0.31016,2.09008 -0.33771,0.54742 -1.23487,1.13616 -1.97085,1.29339 -1.56865,0.33524 -3.39538,-0.14665 -4.34965,-1.14731 -0.62121,-0.65137 -0.68281,-0.93495 -0.68281,-3.1434 v -1.98063 l -0.27212,-0.288 c -0.51993,-0.55037 -1.49588,-0.73228 -2.30826,-0.43018 -0.81187,0.30198 -0.90698,0.50313 -0.98088,2.07572 -0.0745,1.5857 -0.23324,1.99211 -1.02533,2.62582 -1.800145,1.44019 -5.444196,1.21115 -6.778041,-0.42599 -0.40417,-0.49606 -0.483827,-0.75466 -0.567372,-1.84142 l -0.07656,-0.99625 -0.346897,-0.22299 c -0.29367,-0.1886 -0.438271,-0.22299 -0.942454,-0.22299 -0.666508,0 -1.158652,0.14778 -1.356219,0.4072 -0.07262,0.0953 -0.16441,0.59139 -0.203976,1.1023 -0.05559,0.71796 -0.125476,1.01042 -0.307752,1.2878 -0.372801,0.56746 -0.915772,0.96446 -1.697803,1.24139 -0.637797,0.22602 -0.809097,0.25209 -1.646741,0.25209 -0.837649,0 -1.008948,-0.0264 -1.64674,-0.25209 -1.364931,-0.48336 -1.860296,-1.14713 -1.99678,-2.67564 -0.05754,-0.64475 -0.144969,-1.02924 -0.280008,-1.23198 -0.526057,-0.78965 -1.964801,-1.01064 -3.096488,-0.47554 -0.613832,0.29027 -0.831034,0.67593 -0.928834,1.64943 -0.103618,1.03173 -0.452984,1.63702 -1.284496,2.2258 -1.000563,0.70843 -2.048362,0.95905 -4.009853,0.95905 h -1.179292 l 0.02785,5.05104 0.02785,5.05104 1.614284,0.0397 c 1.461097,0.0378 1.673023,0.0593 2.23337,0.24756 0.848243,0.2846 1.729167,0.90297 2.138833,1.50153 0.28169,0.41156 0.346529,0.61841 0.42109,1.3428 0.107242,1.04243 0.329399,1.39207 1.102808,1.73578 0.414153,0.18406 0.63568,0.22904 1.13,0.22829 0.645101,-6.1e-4 1.317919,-0.18898 1.651149,-0.46209 0.532026,-0.43597 0.524181,-0.36548 0.524181,-4.70325 0,-4.16511 0.03573,-4.59329 0.433175,-5.15546 0.301288,-0.42641 0.959031,-0.8521 1.712967,-1.10861 1.788106,-0.60839 4.054516,-0.0302 4.878456,1.24244 0.235451,0.36397 0.23976,0.43151 0.293092,4.64013 l 0.05417,4.27079 0.269026,0.20712 c 0.545078,0.41938 1.096656,0.51749 1.770798,0.31483 0.744157,-0.22374 0.752107,-0.2536 0.812055,-3.06047 l 0.0538,-2.51955 0.283581,-0.43506 c 0.398916,-0.61198 0.968069,-1.03162 1.79739,-1.32529 0.62484,-0.2211 0.81887,-0.25209 1.575796,-0.25209 0.724768,0 0.960298,0.034 1.468516,0.21354 0.713844,0.25209 1.521809,0.84427 1.850639,1.35624 0.2314,0.36019 0.23524,0.43227 0.28836,5.36573 0.0588,5.46886 0.0142,5.12201 0.69952,5.42343 0.38625,0.17008 0.79413,0.18066 1.28082,0.034 z m 7.36876,-19.20095 c 0.59209,-0.22034 0.60133,-0.24944 0.66342,-2.08739 0.0533,-1.57826 0.0768,-1.73885 0.30386,-2.07251 0.33833,-0.49723 0.91074,-0.89926 1.62211,-1.13922 0.8077,-0.27251 2.15744,-0.28384 2.95345,-0.0227 0.28873,0.0941 0.56791,0.17084 0.62052,0.17084 0.0541,0 0.0832,-0.93158 0.0669,-2.14814 l -0.0305,-2.14817 h -4.5738 -4.5738 l -0.0289,1.7319 c -0.0289,1.72036 -0.0273,1.73533 0.25857,2.24492 0.28731,0.51239 0.28757,0.51523 0.26614,2.42899 -0.0194,1.73968 -0.002,1.94627 0.18411,2.24489 0.25274,0.40433 0.62312,0.6573 1.1663,0.79661 0.53471,0.13682 0.73509,0.13758 1.09958,0.002 z m -11.598257,-1.44786 c 0.541584,-0.13039 1.011397,-0.40921 1.218327,-0.72287 0.14497,-0.21959 0.18884,-0.54032 0.2097,-1.5332 0.0326,-1.536 0.16268,-1.81327 1.18094,-2.51275 1.0144,-0.69679 1.4896,-0.83308 2.8983,-0.83127 l 1.15957,0.001 -0.0294,-1.1627 -0.0294,-1.16262 -4.65451,-0.0189 -4.654512,-0.0189 v 3.49195 c 0,3.85878 -0.0037,3.83607 0.687762,4.2065 0.629821,0.33751 1.331402,0.43007 2.013551,0.2657 z m -23.009003,-0.2691 c 0.454087,-0.16479 0.914805,-0.47773 1.126506,-0.76528 0.105508,-0.14324 0.201349,-0.55506 0.250215,-1.07482 0.07057,-0.75005 0.121903,-0.90463 0.467539,-1.40769 0.79307,-1.15423 2.510015,-1.83212 4.262317,-1.68283 l 0.538605,0.0457 -0.02943,-1.38501 -0.02942,-1.38508 h -4.789036 -4.789027 l -0.02785,3.88989 -0.02785,3.88993 h 1.351568 c 1.029893,0 1.433548,-0.0302 1.695996,-0.1251 z m 12.431098,-0.26419 c 0.499853,-0.21921 0.666139,-0.56236 0.666139,-1.37488 0,-0.38748 0.07104,-0.8572 0.163518,-1.08117 0.484825,-1.17438 2.277986,-1.88742 4.077141,-1.6213 l 0.709815,0.10507 v -1.76724 -1.7673 H 89.29078 84.609364 v 1.81901 1.81897 l 0.366864,0.36775 c 0.531416,0.53288 0.787806,1.16137 0.876385,2.14832 0.08349,0.93011 0.219792,1.21327 0.66833,1.38834 0.440479,0.17196 1.404066,0.15345 1.834645,-0.034 z m -5.790987,-12.22889 v -3.32867 h -4.842847 -4.842842 v 3.32867 3.32863 h 4.842842 4.842847 z m 11.407589,0 v -3.32867 h -4.681415 -4.681416 v 3.32867 3.32863 h 4.681416 4.681415 z m 11.5152,0 v -3.32867 h -4.68141 -4.681416 v 3.32867 3.32863 h 4.681416 4.68141 z m 11.29999,0 v -3.32867 h -4.62762 -4.62761 v 3.32867 3.32863 h 4.62761 4.62762 z M 82.564601,98.055484 v -3.328669 h -4.842847 -4.842842 v 3.328669 3.328666 h 4.842842 4.842847 z m 11.407589,0 v -3.328669 h -4.681415 -4.681416 v 3.328669 3.328666 h 4.681416 4.681415 z m 11.5152,0 v -3.328669 h -4.68141 -4.681416 v 3.328669 3.328666 h 4.681416 4.68141 z m 11.29999,0 v -3.328669 h -4.62762 -4.62761 v 3.328669 3.328666 h 4.62761 4.62762 z"
       id="path21" />
  </g>
</svg>
